<?xml version="1.0" standalone="no"?>
<!DOCTYPE svg PUBLIC "-//W3C//DTD SVG 20010904//EN"
 "http://www.w3.org/TR/2001/REC-SVG-20010904/DTD/svg10.dtd">
<svg version="1.0" xmlns="http://www.w3.org/2000/svg"
 width="500.000000pt" height="500.000000pt" viewBox="0 0 500.000000 500.000000"
 preserveAspectRatio="xMidYMid meet">
<metadata>
Created by potrace 1.11, written by Peter Selinger 2001-2013
</metadata>
<g transform="translate(0.000000,500.000000) scale(0.100000,-0.100000)"
fill="#000000" stroke="none">
<path d="M3115 4584 c-16 -9 -100 -87 -185 -174 -161 -163 -654 -669 -780
-800 -40 -41 -175 -181 -300 -310 -342 -353 -358 -372 -415 -475 -33 -61 -41
-144 -18 -192 34 -73 103 -116 408 -258 97 -45 162 -90 217 -150 15 -16 28
-35 28 -41 0 -6 7 -17 14 -24 15 -12 42 -83 53 -137 11 -60 9 -141 -8 -203
-33 -128 -171 -520 -219 -625 -5 -11 -23 -54 -40 -95 -17 -41 -42 -99 -56
-128 -13 -29 -24 -54 -24 -57 0 -2 -13 -32 -29 -67 -103 -221 -115 -392 -31
-436 56 -29 158 5 260 87 59 47 357 349 670 681 29 30 84 89 124 130 65 70
241 258 377 404 345 372 433 495 432 606 -1 77 -5 88 -47 130 -48 49 -96 74
-301 158 -228 94 -267 116 -336 185 -29 29 -78 115 -85 149 -41 199 -30 251
185 833 29 77 54 147 56 155 5 19 90 242 148 390 25 64 47 131 50 150 4 38 -9
87 -29 107 -21 21 -86 25 -119 7z"/>
</g>
</svg>
